<!-- Original was 85x35 (without scale) -->
<svg version="1.1" xmlns="http://www.w3.org/2000/svg" xmlns:xlink="http://www.w3.org/1999/xlink" width="200px" height="82.25px">
	<g transform="scale(2.35)">
		<path fill="#CD181F" d="m 23.028 15.444 c 0 0 5.76 -0.921 5.76 -4.505 c 0 -3.506 -6.134 -4.939 -12.656 -4.939 c -5.889 0 -9.76 0.72 -9.76 0.72 v 3.183 c 2.672 -0.647 5.229 -1.197 8.713 -1.197 c 3.737 0 6.592 1.115 6.592 2.692 c 0 1.9 -2.821 2.985 -8.896 2.985 h -2.791 v 2.866 h 2.594 c 6.397 0 10.036 0.962 10.036 3.311 c 0 2.096 -3.25 3.369 -7.305 3.369 c -3.534 0 -6.766 -0.752 -9.389 -1.479 v 3.434 c 1.26 0.217 4.601 0.887 10.825 0.887 c 6.896 0 12.894 -2.216 12.894 -6.124 c -0.00000405312 -3.279 -4.156 -5.203 -6.617 -5.203"/>
		<path fill="#231F20" d="m 42.304 8.912 c -3.94901 0 -3.94901 0 -3.94901 0 c 0 14.952 0 14.952 0 14.952 c 3.94901 0 3.94901 0 3.94901 0 c 6.063 0 9.88699 -2.592 9.88699 -7.446 c 0.0000152588 -4.851 -3.82298 -7.506 -9.88699 -7.506 m 10.603 16.344 c -1.955 0.884001 -5.64799 1.447 -8.881 1.447 c -12.345 0 -12.345 0 -12.345 0 c 0 -20.571 0 -20.571 0 -20.571 c 12.345 0 12.345 0 12.345 0 c 3.23199 0 6.92599 0.568 8.883 1.45 c 4.754 2.145 6.308 5.581 6.308 8.835 c -0.000991821 3.259 -1.53999 6.689 -6.30998 8.839 m 7.06099 -2.601 c 1.862 0.733999 5.79199 1.33 8.858 1.33 c 3.356 0 4.74899 -1.152 4.74899 -2.597 c 0 -1.298 -1.293 -2.06 -5 -3.419 c -4.955 -1.831 -8.591 -3.274 -8.591 -6.529 c 0 -3.371 4.37399 -5.352 11.043 -5.352 c 3.58 0 4.811 0.226 7.086 0.642 c 0.0149994 3.199 0.0149994 3.199 0.0149994 3.199 c -2.23199 -0.426 -4.21201 -1.155 -7.28799 -1.155 c -3.295 0 -4.698 1.045 -4.698 2.123 c 0 1.567 2.161 2.315 5.95599 3.665 c 5.28101 1.893 8.22099 3.351 8.22099 6.538 c 0 3.279 -3.67999 5.645 -11.979 5.645 c -3.407 0 -5.758 -0.223 -8.371 -0.643 c 0 -3.447 0 -3.447 0 -3.447 Z"/>
	</g>
</svg>
